<?xml version="1.0" encoding="utf-8"?>
<!-- Generator: Adobe Illustrator 16.2.0, SVG Export Plug-In . SVG Version: 6.00 Build 0)  -->
<!DOCTYPE svg PUBLIC "-//W3C//DTD SVG 1.1//EN" "http://www.w3.org/Graphics/SVG/1.1/DTD/svg11.dtd">
<svg version="1.1" id="图层_1" xmlns="http://www.w3.org/2000/svg" xmlns:xlink="http://www.w3.org/1999/xlink" x="0px" y="0px"
	 width="16px" height="16px" viewBox="0 0 16 16" enable-background="new 0 0 16 16" xml:space="preserve">
<path id="Shape" fill="#D5D5D6" d="M0,5.714v9.143C0,15.486,0.514,16,1.143,16h13.714C15.486,16,16,15.486,16,14.857V5.714
	c0-0.628-0.514-1.143-1.143-1.143H1.143C0.514,4.571,0,5.086,0,5.714L0,5.714z M14.857,5.714L8,11.429L1.143,5.714H14.857
	L14.857,5.714z M1.143,7.429l4.571,3.429l-4.571,3.428V7.429L1.143,7.429z M2.286,14.857l4-3.429L8,13.143l1.715-1.714l4,3.429
	H2.286L2.286,14.857z M14.857,14.285l-4.572-3.428l4.572-3.429V14.285L14.857,14.285z"/>
</svg>
