<?xml version="1.0" encoding="utf-8"?>
<!-- Generator: Adobe Illustrator 16.2.0, SVG Export Plug-In . SVG Version: 6.00 Build 0)  -->
<!DOCTYPE svg PUBLIC "-//W3C//DTD SVG 1.1//EN" "http://www.w3.org/Graphics/SVG/1.1/DTD/svg11.dtd">
<svg version="1.1" id="图层_1" xmlns="http://www.w3.org/2000/svg" xmlns:xlink="http://www.w3.org/1999/xlink" x="0px" y="0px"
	 width="16px" height="16px" viewBox="0 0 16 16" enable-background="new 0 0 16 16" xml:space="preserve">
<path id="Shape" fill="#D5D5D6" d="M8.995,1.6c0,0.275-0.098,0.51-0.292,0.706C8.508,2.502,8.273,2.6,8,2.6
	c-0.274,0-0.508-0.098-0.703-0.294C7.103,2.11,7.005,1.875,7.005,1.6s0.098-0.51,0.292-0.707C7.493,0.698,7.727,0.6,8,0.6
	c0.273,0,0.507,0.098,0.703,0.293C8.897,1.09,8.995,1.325,8.995,1.6z M11.581,3.6v8.799c0,0.109-0.039,0.202-0.118,0.282
	c-0.078,0.079-0.171,0.119-0.279,0.119H4.817c-0.108,0-0.201-0.04-0.28-0.119c-0.079-0.08-0.118-0.173-0.118-0.282V3.6
	c0-0.109,0.04-0.202,0.118-0.281S4.709,3.2,4.817,3.2h6.366c0.108,0,0.201,0.04,0.279,0.119C11.542,3.398,11.581,3.491,11.581,3.6z
	 M9.193,14.2c0,0.134-0.066,0.2-0.198,0.2h-1.99c-0.132,0-0.199-0.066-0.199-0.2S6.873,14,7.005,14h1.99
	C9.127,14,9.193,14.066,9.193,14.2z M12.775,14.4V1.6c0-0.433-0.157-0.809-0.473-1.125C11.988,0.158,11.614,0,11.184,0H4.817
	C4.386,0,4.013,0.158,3.698,0.475C3.383,0.792,3.226,1.167,3.226,1.6v12.8c0,0.434,0.157,0.808,0.473,1.125
	C4.013,15.842,4.386,16,4.817,16h6.366c0.431,0,0.805-0.158,1.119-0.475C12.618,15.208,12.775,14.834,12.775,14.4z"/>
</svg>
