<?xml version="1.0" encoding="utf-8"?>
<!-- Generator: Adobe Illustrator 16.2.0, SVG Export Plug-In . SVG Version: 6.00 Build 0)  -->
<!DOCTYPE svg PUBLIC "-//W3C//DTD SVG 1.1//EN" "http://www.w3.org/Graphics/SVG/1.1/DTD/svg11.dtd">
<svg version="1.1" id="图层_1" xmlns="http://www.w3.org/2000/svg" xmlns:xlink="http://www.w3.org/1999/xlink" x="0px" y="0px"
	 width="16px" height="16px" viewBox="0 0 16 16" enable-background="new 0 0 16 16" xml:space="preserve">
<path fill="#D5D5D6" d="M12.797,11.288c0.41,0,0.793,0.106,1.152,0.317c0.357,0.211,0.643,0.496,0.852,0.854
	c0.213,0.357,0.316,0.742,0.316,1.148c0,0.412-0.104,0.8-0.316,1.164c-0.209,0.362-0.494,0.654-0.852,0.873
	c-0.359,0.215-0.742,0.326-1.152,0.326c-0.406,0-0.791-0.111-1.15-0.326c-0.356-0.219-0.641-0.511-0.854-0.873
	c-0.209-0.364-0.318-0.752-0.318-1.164c0-0.252,0.014-0.426,0.039-0.517l-5.659-3.3c-0.46,0.423-1.011,0.634-1.65,0.634
	c-0.422,0-0.819-0.11-1.19-0.327C1.645,9.884,1.351,9.59,1.132,9.219C0.916,8.848,0.807,8.45,0.807,8.028
	c0-0.421,0.109-0.817,0.326-1.189c0.218-0.371,0.512-0.666,0.883-0.882C2.386,5.738,2.783,5.63,3.205,5.63
	c0.639,0,1.189,0.211,1.65,0.632l5.62-3.261C10.426,2.746,10.4,2.56,10.4,2.444c0-0.421,0.106-0.818,0.326-1.188
	c0.219-0.371,0.508-0.665,0.883-0.883c0.369-0.217,0.768-0.326,1.188-0.326c0.424,0,0.818,0.109,1.188,0.326
	c0.375,0.218,0.668,0.512,0.886,0.883c0.219,0.37,0.323,0.767,0.323,1.188c0,0.422-0.104,0.82-0.323,1.19
	c-0.218,0.371-0.511,0.665-0.886,0.883c-0.368,0.217-0.764,0.326-1.188,0.326c-0.59,0-1.137-0.224-1.65-0.672l-5.62,3.301
	c0.051,0.23,0.077,0.409,0.077,0.536s-0.025,0.32-0.077,0.575l5.698,3.3C11.689,11.488,12.207,11.288,12.797,11.288z"/>
</svg>
